<?xml version="1.0" encoding="utf-8"?>
<!-- Generator: Adobe Illustrator 24.0.1, SVG Export Plug-In . SVG Version: 6.00 Build 0)  -->
<svg version="1.1" id="Layer_1" xmlns="http://www.w3.org/2000/svg" xmlns:xlink="http://www.w3.org/1999/xlink" x="0px" y="0px"
	 viewBox="0 0 512 512" style="enable-background:new 0 0 512 512;" xml:space="preserve">
<path d="M329.6,256.7c-3.6-3-5.6-4.5-7.4-6.2c-59.9-59.8-119.7-119.6-179.4-179.6c-3.7-3.7-6.7-8.8-8-13.8
	c-2.1-7.8,2.6-16.2,9.6-20.3c7.1-4.1,16-3.6,22.5,1.6c2,1.6,3.7,3.4,5.5,5.2c65.1,65,130.1,130.1,195.1,195.1
	c12.7,12.7,12.7,22.8-0.2,35.6c-65.5,65.5-131,131-196.5,196.5c-6.3,6.3-13.2,9.7-22.1,7.1c-13.7-4-19-20.3-10.3-31.6
	c1.5-2,3.4-3.7,5.2-5.5c59.7-59.7,119.4-119.4,179.1-179C324.4,260.1,326.5,259,329.6,256.7z"/>
</svg>
