<?xml version="1.0" encoding="utf-8"?>
<!-- Generator: Adobe Illustrator 24.0.1, SVG Export Plug-In . SVG Version: 6.00 Build 0)  -->
<svg version="1.1" id="Layer_1" xmlns="http://www.w3.org/2000/svg" xmlns:xlink="http://www.w3.org/1999/xlink" x="0px" y="0px"
	 viewBox="0 0 410.4 410.4" style="enable-background:new 0 0 410.4 410.4;" xml:space="preserve">
<g>
	<path d="M403.2,266.4c0-69.9,0-139.9,0-209.8c0-24-14.8-42.9-37.7-48.3c-4-0.9-8.2-1.2-12.2-1.2C254.5,7,155.9,7,57.2,7
		C31.5,7,12.7,22.7,7.8,48.1c-0.1,0.5-0.4,0.9-0.6,1.4c0,103.6,0,207.2,0,310.8c2.1,6,3.4,12.4,6.4,17.9
		c7.4,13.4,19.1,21.4,34.4,23.9c0.6,0.1,1.2,0.4,1.8,0.7c52.8,0,157.4,0,212.7,0c1.3,0,2.7,0,4,0c31.4,0,62.8,0,94.3,0
		c6-2.1,12.5-3.3,18-6.5c16.2-9.2,24.4-23.7,24.5-42.3C403.3,324.9,403.2,295.6,403.2,266.4z M379.9,352.2
		c0,16.9-10.4,27.3-27.2,27.3l-294.4,0c-17.4,0-27.6-10.3-27.6-27.6c0-98.1,0-196.1,0-294.2c0-13.5,6.6-23.1,18.3-26.3
		c2.8-0.8,5.8-1.1,8.8-1.1c98.3-0.1,196.7-0.1,295,0c16.8,0,27.2,10.4,27.2,27.3C379.9,155.8,379.9,254,379.9,352.2z"/>
	<path d="M242.4,98.4c3.6,0.3,7.2,0.5,10.8,0.8c2.5,0.2,5,0.4,7.5,0.7c0,11.3,0,22.5,0,33.9c-1,0-2,0-2.9,0
		c-7.2,0.1-14.3,0-21.5,0.4c-8.9,0.5-13.8,5.2-14.2,14c-0.4,9.3-0.1,18.6-0.1,28.2c12.4,0,24.8,0,37.4,0c-1.7,12.8-3.3,25.3-4.9,38
		c-10.9,0-21.7,0-32.6,0c0,32.5,0,64.7,0,97.1c-13.1,0-26.1,0-39.2,0c0-32.3,0-64.5,0-97c-11,0-21.8,0-32.7,0c0-12.7,0-25.2,0-37.9
		c10.8,0,21.6,0,32.7,0c0-1.1,0-1.9,0-2.7c0-9.9-0.2-19.9,0.2-29.8c0.5-11.9,4-22.9,12.5-31.8c6.4-6.8,14.4-10.7,23.5-12.6
		c2.4-0.5,4.9-0.9,7.3-1.3C231.5,98.4,236.9,98.4,242.4,98.4z"/>
</g>
</svg>
