<?xml version="1.0" encoding="utf-8"?>
<!-- Generator: Adobe Illustrator 24.0.1, SVG Export Plug-In . SVG Version: 6.00 Build 0)  -->
<svg version="1.1" id="Layer_1" xmlns="http://www.w3.org/2000/svg" xmlns:xlink="http://www.w3.org/1999/xlink" x="0px" y="0px"
	 viewBox="0 0 45 45" style="enable-background:new 0 0 45 45;" xml:space="preserve">
<style type="text/css">
	.st0{fill:#9E8C5B;}
</style>
<g>
	<path class="st0" d="M7.7,27.5c1.8-0.8,3.5-1.5,5.3-2.2c1-0.4,2-0.2,3,0c4.6,1,9.1,2.2,13.4,4.3c0.5,0.3,1.1,0.6,1.6,0.8
		c-0.2,0.9-0.9,1.5-1.8,1.7c-1.4,0.2-2.8,0-4.1-0.2c-1.4-0.3-2.8-0.7-4.3-1c-0.2,0-0.5-0.1-0.7,0s-0.3,0.4-0.3,0.6
		c0,0.4,0.3,0.5,0.6,0.6c1.4,0.3,2.8,0.7,4.2,1c1.5,0.3,3,0.5,4.5,0.3c1.8-0.2,2.9-1.1,3.3-3c0-0.1,0.2-0.3,0.3-0.3
		c2.9-1.6,5.8-3.2,8.6-4.8c1-0.5,1.9-0.3,2.4,0.5c0.6,0.8,0.5,1.8-0.4,2.5c-0.8,0.7-1.7,1.2-2.6,1.8c-2.5,1.7-5.1,3.4-7.7,5.1
		c-2,1.2-4.2,2.2-6.5,2.6c-1.9,0.3-3.7,0.3-5.5-0.4c-1.7-0.7-3.5-1.2-5.3-1.5c-1.1-0.1-2.1-0.1-3.2,0.2c-0.2,0.1-0.4,0-0.5-0.2
		c-1.4-2.7-2.9-5.4-4.3-8.1C7.7,27.6,7.7,27.6,7.7,27.5z"/>
	<path class="st0" d="M31.8,5.9c1.9,0,3.8,0,5.8,0c0,0.2,0,0.3,0,0.5c0,6.3,0,12.6,0,18.9c0,0.3-0.1,0.5-0.4,0.7
		c-1.7,0.9-3.3,1.8-5,2.8c-0.1,0.1-0.3,0.2-0.5,0.3C31.8,21.3,31.8,13.6,31.8,5.9z"/>
	<path class="st0" d="M23.3,25.8c-0.5-0.2-1-0.3-1.5-0.4c-1.3-0.3-2.6-0.7-3.9-1c-0.3-0.1-0.4-0.2-0.4-0.5c0-4.3,0-8.6,0-13
		c0-0.1,0-0.2,0-0.4c1.9,0,3.8,0,5.8,0C23.3,15.6,23.3,20.7,23.3,25.8z"/>
	<path class="st0" d="M30.4,28.6c-0.8-0.4-1.6-0.7-2.4-1.1c-1-0.4-2.1-0.8-3.1-1.2c-0.2-0.1-0.3-0.2-0.3-0.5c0-3.5,0-7,0-10.5
		c0-0.1,0-0.2,0-0.3c1.9,0,3.8,0,5.8,0C30.4,19.6,30.4,24.1,30.4,28.6z"/>
	<path class="st0" d="M11.4,37.3c-0.1,0.1-0.2,0.2-0.3,0.3c-0.6,0.3-1.2,0.7-1.8,1c-0.4,0.2-0.5,0-0.7-0.3c-1.3-2.5-2.7-5-4-7.5
		c-0.4-0.7-0.7-1.4-1.1-2.1c-0.2-0.3-0.1-0.5,0.2-0.7c0.6-0.3,1.1-0.6,1.7-0.9c0.3-0.2,0.5-0.1,0.7,0.2c1.7,3.2,3.5,6.5,5.2,9.7
		C11.3,37.1,11.3,37.2,11.4,37.3z"/>
	<path class="st0" d="M10.3,25c0-1.8,0-3.5,0-5.2c1.9,0,3.8,0,5.8,0c0,1.4,0,2.8,0,4.2C14.1,23.5,12.2,24,10.3,25z"/>
	<path class="st0" d="M2.7,30c1.5,2.8,3,5.5,4.5,8.3c-0.5,0.2-0.9,0.5-1.4,0.7c-0.4,0.2-0.7,0-1-0.5c-0.6-1.1-1.2-2.2-1.8-3.3
		S1.8,33,1.2,31.8c-0.3-0.6-0.2-1,0.4-1.4C1.9,30.4,2.3,30.2,2.7,30z"/>
</g>
</svg>
