<?xml version="1.0" encoding="utf-8"?>
<!-- Generator: Adobe Illustrator 24.0.1, SVG Export Plug-In . SVG Version: 6.00 Build 0)  -->
<svg version="1.1" id="Layer_1" xmlns="http://www.w3.org/2000/svg" xmlns:xlink="http://www.w3.org/1999/xlink" x="0px" y="0px"
	 viewBox="0 0 45 45" style="enable-background:new 0 0 45 45;" xml:space="preserve">
<style type="text/css">
	.st0{fill:#9E8C5B;}
</style>
<g>
	<path class="st0" d="M12.7,34.4c-0.8-0.8-1.6-1.6-2.5-2.5c0.5-0.7,1-1.5,1.6-2.3c0.5-0.6,0.7-1.1,0.2-1.9c-0.5-0.7-0.7-1.7-1-2.5
		c-0.1-0.3-0.2-0.4-0.5-0.4c-1.1-0.2-2.2-0.3-3.3-0.5c0,0-0.2-0.2-0.2-0.3c0-1.1,0-2.1,0-3.2c0.9-0.1,1.7-0.3,2.5-0.4
		c0.5-0.1,1,0,1.4-0.3c0.3-0.2,0.3-0.8,0.5-1.2c0.3-0.7,0.7-1.5,1-2.2c0.1-0.3,0.2-0.4,0-0.7c-0.7-1-1.4-1.9-2.1-2.9
		c0.8-0.8,1.6-1.6,2.5-2.5c0.9,0.6,1.9,1.3,2.8,2.1c0.3,0.2,0.4,0.2,0.7,0c1-0.6,2-1,3.1-1.3c0.3-0.1,0.4-0.2,0.4-0.4
		c0.2-1.1,0.4-2.2,0.5-3.3c0-0.2,0.1-0.4,0.4-0.4c1,0,1.9,0,2.9,0c0.3,0,0.3,0.1,0.4,0.3c0.2,1.1,0.4,2.2,0.5,3.3
		c0,0.3,0.1,0.4,0.4,0.4c1.1,0.3,2.2,0.7,3.2,1.3c0.3,0.2,0.4,0.1,0.6,0c1-0.7,2-1.4,2.9-2.1c0.8,0.8,1.6,1.6,2.5,2.5
		c-0.6,0.9-1.3,1.8-1.9,2.7c-0.3,0.4-0.3,0.7-0.1,1.1c0.5,0.9,0.8,1.9,1.2,2.9c0.1,0.3,0.2,0.4,0.5,0.4c1.1,0.2,2.2,0.3,3.3,0.5
		c0.1,0,0.2,0.1,0.3,0.1c0,1.1,0,2.2,0,3.3c0,0.1-0.2,0.2-0.3,0.2c-1.1,0.2-2.2,0.4-3.3,0.5c-0.3,0-0.5,0.2-0.5,0.5
		c-0.3,1.2-0.8,2.3-1.5,3.4c0.8,1.1,1.6,2.2,2.3,3.2c-0.8,0.8-1.6,1.7-2.5,2.5c-0.9-0.7-1.9-1.4-2.9-2.1c-0.2-0.2-0.4-0.2-0.6,0
		c-1,0.5-2,0.9-3.1,1.3c-0.3,0.1-0.5,0.3-0.5,0.6c-0.2,1.2-0.4,2.3-0.6,3.5c-1.2,0-2.3,0-3.5,0c-0.1-0.8-0.3-1.6-0.4-2.4
		c-0.1-0.5,0-1.1-0.3-1.4c-0.3-0.3-0.9-0.3-1.3-0.5c-0.7-0.3-1.5-0.7-2.2-1c-0.2-0.1-0.4-0.1-0.6,0C14.7,33,13.7,33.7,12.7,34.4z
		 M22.1,29.8c4,0,7.3-3.2,7.4-7.3c0-4-3.2-7.3-7.2-7.4c-4.1-0.1-7.4,3.2-7.4,7.2C14.8,26.5,18,29.8,22.1,29.8z"/>
	<path class="st0" d="M4,15c-0.3-0.2-0.7-0.3-0.9-0.6c-0.2-0.2-0.4-0.5-0.3-0.7c0-0.2,0.3-0.5,0.5-0.5C4,13,4.7,12.9,5.5,12.7
		c0.4-0.1,0.7,0.1,0.8,0.5c0.2,0.8,0.4,1.5,0.6,2.3c0,0.2-0.1,0.6-0.2,0.7c-0.2,0.1-0.5,0.1-0.7,0c-0.3-0.1-0.5-0.3-0.8-0.5
		c-0.3,0.8-0.6,1.6-0.7,2.4c-1.5,7,0.3,13.1,5.5,18c0.6,0.5,1.2,1,1.8,1.5c0.4,0.3,0.5,0.7,0.3,1s-0.6,0.4-1,0.1
		C6.6,35.5,3.9,31.3,2.8,26c-0.7-3.7-0.3-7.3,1-10.7C3.9,15.2,3.9,15.1,4,15z"/>
	<path class="st0" d="M15.4,41c-0.2,0.3-0.3,0.7-0.5,0.9s-0.4,0.4-0.6,0.4c-0.3,0-0.5-0.2-0.6-0.5c-0.2-0.7-0.4-1.4-0.7-2.1
		c-0.2-0.5,0-0.8,0.5-1c0.7-0.2,1.4-0.5,2.1-0.6c0.2-0.1,0.5,0,0.7,0.2c0.3,0.2,0.2,0.5,0.1,0.8s-0.3,0.5-0.5,0.9
		c1.2,0.3,2.3,0.6,3.5,0.8c6.9,0.9,12.7-1.4,17.2-6.8c0.3-0.4,0.6-0.8,0.9-1.2c0.3-0.4,0.7-0.6,1-0.3c0.3,0.2,0.4,0.6,0.1,1
		c-2.8,4.2-6.7,6.9-11.5,8.2c-3.8,1-7.6,0.8-11.3-0.4C15.7,41.1,15.6,41,15.4,41z"/>
	<path class="st0" d="M29,4c0.2-0.4,0.2-0.7,0.4-0.9c0.1-0.2,0.4-0.4,0.6-0.4s0.5,0.2,0.6,0.4c0.3,0.7,0.6,1.4,0.8,2.2
		c0.2,0.4,0,0.7-0.4,0.9c-0.7,0.3-1.5,0.6-2.2,0.8c-0.2,0.1-0.5,0-0.7-0.2C28,6.7,28,6.4,28,6.2c0.1-0.3,0.3-0.6,0.4-1
		c-1.1-0.3-2.2-0.6-3.2-0.8c-7.1-1-12.9,1.3-17.5,6.8l-0.1,0.1c-0.3,0.3-0.7,0.4-0.9,0.2c-0.3-0.2-0.3-0.6,0-1c0.9-1,1.7-2,2.7-2.9
		c4.3-3.6,9.2-5.2,14.8-4.7C25.8,3.1,27.4,3.5,29,4z"/>
	<path class="st0" d="M41,28.3c0.4,0.1,0.7,0.3,1.1,0.4c0.3,0.1,0.5,0.3,0.5,0.6c0,0.2-0.2,0.5-0.4,0.6c-0.7,0.4-1.4,0.7-2.1,1
		c-0.4,0.2-0.7,0.1-0.9-0.3c-0.3-0.7-0.7-1.4-1-2.2c-0.1-0.2,0-0.5,0.1-0.7c0.1-0.1,0.4-0.2,0.6-0.2c0.3,0,0.6,0.2,1,0.3
		c0.2-0.9,0.4-1.8,0.6-2.7c0.7-5.4-0.7-10.1-4.1-14.3c-0.9-1.2-2-2.2-3.2-3.1c-0.3-0.2-0.4-0.5-0.3-0.9c0.2-0.4,0.7-0.5,1-0.2
		c1,0.9,2,1.7,2.9,2.6c3.5,3.9,5.2,8.5,5.1,13.7C41.8,24.8,41.5,26.5,41,28.3z"/>
	<path class="st0" d="M20.8,20.9c0,0.5,0.2,0.8,0.7,0.9c0.4,0.1,0.9,0.2,1.3,0.3c0.1,0,0.3,0,0.4,0.1c0.7,0.1,1.5,0.3,1.7,1.1
		c0.3,0.9,0.1,1.7-0.5,2.4c-0.3,0.3-0.7,0.6-1.2,0.8c-0.3,0.1-0.4,0.2-0.4,0.6s-0.1,0.6-0.5,0.7s-0.7-0.2-0.7-0.6s-0.2-0.6-0.5-0.7
		c-0.9-0.3-1.4-0.9-1.7-1.8c-0.1-0.4,0-0.8,0.3-0.9c0.4-0.1,0.7,0,0.9,0.5c0.3,1,1.5,1.4,2.4,1.1c0.2-0.1,0.5-0.3,0.6-0.5
		c0.5-0.6,0.2-1.2-0.5-1.3c-0.5-0.1-1.1-0.1-1.6-0.3c-1.2-0.3-1.7-0.9-1.8-2C19.4,20,20,19,21.1,18.6c0.3-0.1,0.5-0.2,0.4-0.6
		c0-0.5,0.2-0.7,0.6-0.7s0.7,0.3,0.6,0.7c0,0.3,0.1,0.5,0.4,0.6c0.9,0.3,1.4,0.9,1.8,1.7c0.2,0.5,0.1,0.8-0.3,1s-0.7,0-0.9-0.5
		c-0.4-0.9-1.4-1.3-2.3-1C21.1,20,20.8,20.4,20.8,20.9z"/>
</g>
</svg>
