<?xml version="1.0" encoding="utf-8"?>
<!-- Generator: Adobe Illustrator 24.0.1, SVG Export Plug-In . SVG Version: 6.00 Build 0)  -->
<svg version="1.1" id="Layer_1" xmlns="http://www.w3.org/2000/svg" xmlns:xlink="http://www.w3.org/1999/xlink" x="0px" y="0px"
	 viewBox="0 0 45 45" style="enable-background:new 0 0 45 45;" xml:space="preserve">
<style type="text/css">
	.st0{fill:#9E8C5B;}
</style>
<g>
	<path class="st0" d="M42.5,41.2c-0.2,0.5-0.4,0.9-0.9,1.1c-0.6,0.3-1.2,0.3-1.7-0.1c-0.2-0.1-0.3-0.3-0.5-0.4
		c-3.1-3.1-6.2-6.2-9.3-9.3c-0.1-0.1-0.2-0.2-0.3-0.4c-0.2,0.2-0.5,0.3-0.7,0.5c-2.4,1.8-5,2.8-8,3.2C17,36.2,13.3,35.3,9.9,33
		c-4.1-2.8-6.6-6.7-7.2-11.7c-0.6-4.7,0.6-9,3.6-12.7c2.8-3.4,6.4-5.4,10.8-6c0.3,0,0.7-0.1,1-0.1c0.7,0,1.5,0,2.2,0
		c0.3,0,0.7,0.1,1,0.1c5.7,0.8,10,3.8,12.7,8.9c1.6,3,2.1,6.3,1.7,9.7c-0.3,2.4-1.1,4.6-2.4,6.7c-0.4,0.6-0.8,1.2-1.3,1.9
		c0.1,0.1,0.3,0.2,0.4,0.3c3,3,6.1,6.1,9.1,9.1c0.4,0.4,0.7,0.9,1,1.3C42.5,40.7,42.5,40.9,42.5,41.2z M32.5,19.2
		c0-7.3-6-13.3-13.3-13.3s-13.4,6-13.3,13.3c0,7.4,6,13.4,13.4,13.3C26.5,32.5,32.5,26.5,32.5,19.2z"/>
	<path class="st0" d="M27.5,19.2c0,2.4,0,4.8,0,7.2c0,0.8-0.3,1.1-1.1,1.1c-0.9,0-1.9,0-2.8,0c-0.7,0-1.1-0.3-1.1-1
		c0-4.9,0-9.7,0-14.6c0-0.7,0.3-1,1-1c1,0,2,0,3,0c0.7,0,1,0.3,1,1C27.5,14.3,27.5,16.7,27.5,19.2z"/>
	<path class="st0" d="M15.8,21.7c0-1.6,0-3.1,0-4.7c0-0.8,0.3-1.1,1.1-1.1c0.9,0,1.9,0,2.8,0c0.7,0,1,0.3,1,1c0,3.2,0,6.4,0,9.6
		c0,0.8-0.3,1.1-1.1,1.1c-1,0-1.9,0-2.9,0c-0.7,0-1-0.3-1-1C15.8,24.9,15.8,23.3,15.8,21.7z"/>
	<path class="st0" d="M14.2,24.2c0,0.8,0,1.6,0,2.3c0,0.7-0.3,1-1,1c-1,0-2,0-3,0c-0.7,0-1-0.3-1-1c0-1.6,0-3.1,0-4.7
		c0-0.6,0.3-1,1-1c1,0,2,0,3,0c0.7,0,1,0.3,1,1C14.2,22.6,14.2,23.4,14.2,24.2z"/>
</g>
</svg>
