<?xml version="1.0" encoding="utf-8"?>
<!-- Generator: Adobe Illustrator 24.0.1, SVG Export Plug-In . SVG Version: 6.00 Build 0)  -->
<svg version="1.1" id="Layer_1" xmlns="http://www.w3.org/2000/svg" xmlns:xlink="http://www.w3.org/1999/xlink" x="0px" y="0px"
	 viewBox="0 0 45 45" style="enable-background:new 0 0 45 45;" xml:space="preserve">
<style type="text/css">
	.st0{fill:#9E8C5B;}
</style>
<g>
	<path class="st0" d="M1.5,32.9c0.1-0.3,0.1-0.6,0.2-0.9c0.8-2.8,3.4-4.7,6.2-4.5c3,0.2,5.4,2.3,5.8,5.3c0.5,3.4-1.8,6.4-5.2,6.9
		c-3.3,0.5-6.4-1.8-7-5.1c0-0.1-0.1-0.2-0.1-0.3C1.5,33.8,1.5,33.4,1.5,32.9z"/>
	<path class="st0" d="M43.5,34.3c-0.1,0.3-0.1,0.6-0.2,0.8c-0.7,2.8-3.4,4.8-6.3,4.6c-3-0.2-5.3-2.3-5.8-5.3
		c-0.5-3.3,1.8-6.4,5.2-6.9c3.3-0.5,6.5,1.8,7,5.2c0,0.1,0,0.2,0.1,0.2C43.5,33.4,43.5,33.8,43.5,34.3z"/>
	<path class="st0" d="M22.5,1.6c3.4,0,6.2,2.7,6.2,6.1s-2.8,6.1-6.1,6.1c-3.4,0-6.2-2.7-6.2-6.1C16.3,4.3,19.1,1.6,22.5,1.6z"/>
	<path class="st0" d="M29.7,39.3c0.4,0.7,0.7,1.4,1.1,2.1c-4.3,2.4-11.1,2.9-16.6,0c0.4-0.7,0.7-1.4,1.1-2.2
		c2.3,1.1,4.7,1.7,7.2,1.7C25,41,27.4,40.4,29.7,39.3z"/>
	<path class="st0" d="M31.3,11.6c0.4-0.7,0.9-1.3,1.4-2.1c5,3.5,7.8,8.3,8.3,14.4c-0.8,0-1.6,0.1-2.5,0.1
		C38,18.8,35.6,14.7,31.3,11.6z"/>
	<path class="st0" d="M12.4,9.6c0.4,0.7,0.9,1.3,1.3,2C9.4,14.7,7,18.8,6.5,24c-0.4,0-0.9,0-1.3,0c-0.3,0-0.7,0-1.1,0
		C3.8,19.3,8.1,11.9,12.4,9.6z"/>
</g>
</svg>
