<?xml version="1.0" encoding="utf-8"?>
<!-- Generator: Adobe Illustrator 24.0.1, SVG Export Plug-In . SVG Version: 6.00 Build 0)  -->
<svg version="1.1" id="Layer_1" xmlns="http://www.w3.org/2000/svg" xmlns:xlink="http://www.w3.org/1999/xlink" x="0px" y="0px"
	 viewBox="0 0 45 45" style="enable-background:new 0 0 45 45;" xml:space="preserve">
<style type="text/css">
	.st0{fill:#9D8B5B;}
</style>
<g>
	<path class="st0" d="M0.5,37.5c0-0.1,0.1-0.1,0.1-0.2C1,36,1.8,35.4,3.1,35.4c2.4,0,4.8,0,7.2,0c10.5,0,21,0,31.5,0
		c1.6,0,2.7,1.2,2.6,2.7c-0.1,1.4-1.2,2.4-2.6,2.4c-8.2,0-16.4,0-24.7,0c-4.6,0-9.3,0-13.9,0c-1.5,0-2.3-0.5-2.8-2c0,0,0,0-0.1-0.1
		C0.5,38.1,0.5,37.8,0.5,37.5z"/>
	<path class="st0" d="M36.3,34.3c0-1.5,0-2.9,0-4.4c0-0.8,0-1.7,0-2.5c0-0.5-0.2-0.7-0.7-0.7c-2.1,0-4.1,0-6.2,0
		c-0.5,0-0.7,0.2-0.7,0.7c0,2.1,0,4.2,0,6.3c0,0.2,0,0.3,0,0.5c-4.4,0-8.8,0-13.2,0c0-0.1,0-0.3,0-0.4c0-4,0-8,0-11.9
		c0-0.7,0.1-0.8,0.8-0.8c0.3,0,0.6,0,1,0c0-4.3,0-8.6,0-12.9c-2.8,0-5.5,0-8.3,0c0,1.2,0,2.4,0,3.7c0.2,0,0.4,0.1,0.6,0.2
		c2.1,0.5,3.6,2.4,3.6,4.5c0,0.8,0,1.7,0,2.5c-3.2,0-6.4,0-9.8,0c0.1-1.2,0-2.3,0.2-3.4c0.4-2.1,1.8-3.3,3.9-3.7
		C7.9,12,8,11.9,8,11.6C8,10.4,8,9.2,8,8c0-0.7,0.1-0.8,0.8-0.8c3,0,5.9,0,8.9,0c0.7,0,0.8,0.1,0.8,0.8c0,4.2,0,8.4,0,12.6
		c0,0.2,0,0.3,0,0.6c0.2,0,0.4,0,0.5,0c7.2,0,14.4,0,21.7,0c0.7,0,0.8,0.1,0.8,0.8c0,4,0,7.9,0,11.9c0,0.1,0,0.3,0,0.5
		C39.7,34.3,38.1,34.3,36.3,34.3z M21.6,28.3c0.8,0,1.7,0,2.5,0c0.5,0,0.7-0.2,0.7-0.7c0-0.8,0-1.6,0-2.4c0-0.5-0.2-0.7-0.7-0.7
		c-1.6,0-3.3,0-4.9,0c-0.5,0-0.7,0.2-0.7,0.7c0,0.8,0,1.6,0,2.4c0,0.5,0.2,0.7,0.7,0.7C20,28.3,20.8,28.3,21.6,28.3z M21.6,29.3
		c-0.8,0-1.6,0-2.4,0c-0.5,0-0.7,0.2-0.7,0.7c0,0.8,0,1.6,0,2.4c0,0.5,0.2,0.7,0.7,0.7c1.6,0,3.3,0,4.9,0c0.5,0,0.7-0.2,0.7-0.7
		c0-0.8,0-1.6,0-2.4c0-0.5-0.2-0.7-0.7-0.7C23.2,29.3,22.4,29.3,21.6,29.3z"/>
	<path class="st0" d="M13.3,34.3c-3.2,0-6.4,0-9.7,0c0-3.6,0-7.2,0-10.8c3.2,0,6.4,0,9.7,0C13.3,27.1,13.3,30.7,13.3,34.3z"/>
	<path class="st0" d="M30.6,20.1c-2.6,0-5.1,0-7.7,0c0.1-1,0.3-2,0.4-2.9c0.4-3.2,0.8-6.4,1.2-9.5c0.1-0.8,0.2-1.6,0.3-2.4
		c0.1-0.5,0.3-0.6,0.7-0.6c1.4,0,2.9,0,4.3,0c0.5,0,0.7,0.2,0.7,0.7c0,4.9,0,9.8,0,14.7C30.7,20,30.6,20,30.6,20.1z"/>
	<path class="st0" d="M40,20.1c-2.6,0-5.1,0-7.7,0c0.1-1,0.2-1.9,0.4-2.9c0.4-3.4,0.9-6.9,1.3-10.3c0.1-0.6,0.1-1.2,0.2-1.7
		c0.1-0.4,0.3-0.6,0.7-0.6c1.5,0,2.9,0,4.4,0c0.5,0,0.7,0.2,0.7,0.6c0,4.9,0,9.8,0,14.8C40,20,40,20,40,20.1z"/>
	<path class="st0" d="M29.8,27.8c1.8,0,3.6,0,5.4,0c0,2.2,0,4.3,0,6.5c-1.8,0-3.6,0-5.4,0C29.8,32.2,29.8,30,29.8,27.8z"/>
	<path class="st0" d="M13.3,20.2c0,0.8,0,1.5,0,2.3c-3.2,0-6.4,0-9.7,0c0-0.7,0-1.5,0-2.3C6.8,20.2,10,20.2,13.3,20.2z"/>
	<path class="st0" d="M23.7,25.5c0,0.6,0,1.1,0,1.7c-1.4,0-2.8,0-4.2,0c0-0.6,0-1.1,0-1.7C20.9,25.5,22.3,25.5,23.7,25.5z"/>
	<path class="st0" d="M19.5,32c0-0.6,0-1.1,0-1.7c1.4,0,2.8,0,4.2,0c0,0.5,0,1.1,0,1.7C22.3,32,20.9,32,19.5,32z"/>
</g>
</svg>
