<?xml version="1.0" encoding="utf-8"?>
<!-- Generator: Adobe Illustrator 24.0.1, SVG Export Plug-In . SVG Version: 6.00 Build 0)  -->
<svg version="1.1" id="Layer_1" xmlns="http://www.w3.org/2000/svg" xmlns:xlink="http://www.w3.org/1999/xlink" x="0px" y="0px"
	 viewBox="0 0 45 45" style="enable-background:new 0 0 45 45;" xml:space="preserve">
<style type="text/css">
	.st0{fill:#9E8C5B;}
</style>
<g>
	<path class="st0" d="M1.3,42.2c0.5-0.9,0.9-1.9,1.4-2.8c0.6-1.1,1.1-2.2,1.7-3.4c0.1-0.2,0.2-0.3,0.5-0.3c5.3,0,10.6,0,16,0
		c0.1,0,0.2,0,0.4,0c0,2.7,0,5.4,0,8c-6.3,0-12.7,0-19,0c-0.4-0.2-0.8-0.5-0.9-1C1.3,42.6,1.3,42.4,1.3,42.2z"/>
	<path class="st0" d="M23.7,43.8c0-2.7,0-5.3,0-8.1c0.2,0,0.3,0,0.5,0c5.3,0,10.5,0,15.8,0c0.3,0,0.5,0.1,0.6,0.4
		c0.8,1.5,1.5,3.1,2.3,4.6c0.1,0.3,0.3,0.6,0.4,0.9c0.5,1.1,0.4,1.6-0.6,2.2C36.4,43.8,30.1,43.8,23.7,43.8z"/>
	<path class="st0" d="M21.2,25.2c0,2.7,0,5.3,0,8c-5.1,0-10.2,0-15.4,0C5.9,33,6,32.9,6,32.8c1.1-2.2,2.2-4.4,3.3-6.6
		c0.3-0.7,0.8-1,1.5-1c3.3,0,6.6,0,9.9,0C21,25.2,21.1,25.2,21.2,25.2z"/>
	<path class="st0" d="M23.8,25.2c1,0,2,0,2.9,0c2.5,0,4.9,0,7.4,0c0.7,0,1.2,0.3,1.5,0.9c1.1,2.2,2.2,4.4,3.4,6.6
		c0.1,0.1,0.1,0.2,0.2,0.4c-5.2,0-10.3,0-15.4,0C23.8,30.5,23.8,27.9,23.8,25.2z"/>
	<path class="st0" d="M27.1,12.1c0,2.6-2,4.6-4.5,4.7c-2.5,0-4.6-2-4.6-4.6c0-2.5,2-4.6,4.5-4.6C25,7.6,27,9.6,27.1,12.1z"/>
	<path class="st0" d="M18.8,7.1c0,0.6-0.2,1-0.7,1.2c-0.4,0.2-0.9,0.2-1.3-0.1c-0.8-0.7-1.5-1.4-2.2-2.2c-0.4-0.4-0.3-1.2,0.1-1.6
		c0.4-0.4,1.1-0.5,1.6-0.1c0.8,0.7,1.5,1.5,2.2,2.2C18.7,6.7,18.8,7,18.8,7.1z"/>
	<path class="st0" d="M30.6,5.5c-0.1,0.2-0.2,0.5-0.4,0.8c-0.6,0.6-1.2,1.2-1.8,1.8c-0.6,0.5-1.3,0.5-1.8,0
		c-0.5-0.5-0.5-1.2,0.1-1.8c0.6-0.6,1.3-1.3,1.9-1.9C28.9,4,29.4,4,29.9,4.2C30.3,4.4,30.6,4.8,30.6,5.5z"/>
	<path class="st0" d="M29.2,20.3c-0.2-0.1-0.5-0.2-0.7-0.4c-0.6-0.6-1.3-1.2-1.9-1.9c-0.5-0.5-0.5-1.3,0-1.8c0.5-0.5,1.3-0.5,1.8,0
		c0.6,0.6,1.3,1.3,1.9,1.9c0.4,0.4,0.5,0.9,0.2,1.4C30.2,20.1,29.9,20.3,29.2,20.3z"/>
	<path class="st0" d="M17.5,15.9c0.6,0,1,0.2,1.2,0.7c0.2,0.4,0.2,0.9-0.1,1.3c-0.7,0.8-1.4,1.5-2.2,2.2c-0.4,0.4-1.2,0.3-1.6-0.1
		c-0.4-0.4-0.5-1.1-0.1-1.6c0.7-0.8,1.5-1.5,2.2-2.2C17,16,17.3,16,17.5,15.9z"/>
	<path class="st0" d="M23.7,3.9c0,0.4,0,0.9,0,1.3c0,0.7-0.5,1.2-1.2,1.2c-0.7,0-1.2-0.5-1.2-1.2c0-0.9,0-1.8,0-2.7
		c0-0.7,0.5-1.2,1.2-1.2c0.7,0,1.2,0.5,1.2,1.3C23.8,3,23.7,3.4,23.7,3.9z"/>
	<path class="st0" d="M14.2,13.4c-0.5,0-0.9,0-1.4,0c-0.7,0-1.2-0.6-1.2-1.2c0-0.7,0.5-1.2,1.2-1.2c0.9,0,1.8,0,2.7,0
		c0.7,0,1.2,0.6,1.2,1.2c0,0.7-0.5,1.2-1.2,1.2C15.1,13.4,14.6,13.4,14.2,13.4z"/>
	<path class="st0" d="M30.8,13.4c-0.4,0-0.9,0-1.3,0c-0.7,0-1.3-0.6-1.3-1.3c0-0.7,0.5-1.2,1.3-1.2c0.9,0,1.8,0,2.7,0
		c0.7,0,1.3,0.6,1.3,1.3c0,0.7-0.5,1.2-1.3,1.2C31.7,13.4,31.3,13.4,30.8,13.4z"/>
	<path class="st0" d="M21.3,20.5c0-0.4,0-0.9,0-1.3c0-0.7,0.5-1.2,1.2-1.3c0.7,0,1.2,0.5,1.3,1.3c0,0.9,0,1.8,0,2.7
		c0,0.7-0.5,1.2-1.2,1.3c-0.7,0-1.2-0.5-1.3-1.3C21.3,21.4,21.3,21,21.3,20.5z"/>
</g>
</svg>
