<?xml version="1.0" encoding="utf-8"?>
<!-- Generator: Adobe Illustrator 24.0.1, SVG Export Plug-In . SVG Version: 6.00 Build 0)  -->
<svg version="1.1" id="Layer_1" xmlns="http://www.w3.org/2000/svg" xmlns:xlink="http://www.w3.org/1999/xlink" x="0px" y="0px"
	 viewBox="0 0 45 45" style="enable-background:new 0 0 45 45;" xml:space="preserve">
<style type="text/css">
	.st0{fill:#9D8B5B;}
</style>
<path class="st0" d="M43.8,41.2c0,0.8,0,1.7,0,2.5c-14.2,0-28.3,0-42.5,0c0-0.8,0-1.7,0-2.5c0.9,0,1.7,0,2.5,0c0-1.7,0-3.3,0-5
	c0.2,0,0.4,0,0.5,0c3.6,0,7.3,0,10.9,0c0.3,0,0.5,0,0.5-0.4c0.3-3.3,0.6-6.6,0.9-9.8c0.3-3.2,0.6-6.4,0.9-9.5
	c0.1-0.7,0.1-1.4,0.2-2.2c-2.2-0.4-4.4-0.8-6.6-1.2c-0.5,1.7-1.1,3.5-1.6,5.2c-2.4-0.4-4.7-0.8-7.1-1.2C2.7,11.8,3,6.6,3.3,1.3
	c3.7,0.7,7.3,1.3,10.9,1.9c-0.5,1.8-1.1,3.5-1.6,5.2c9.2,1.6,18.4,3.2,27.6,4.9c-0.3,1.7-0.6,3.3-0.9,4.9c-1.3-0.2-2.6-0.4-3.8-0.7
	c0,3.6,0,7.2,0,10.9c0.8,0,1.6,0,2.5,0c0,2.6,0,5.2,0,7.9c1.1,0,2.2,0,3.3,0c0,1.7,0,3.3,0,5C42.1,41.2,42.9,41.2,43.8,41.2z
	 M26,15.8c0,0.2,0,0.3,0,0.5c0.2,2.2,0.4,4.3,0.6,6.5c0.3,2.8,0.5,5.6,0.8,8.4c0.1,1.6,0.3,3.1,0.4,4.7c0,0.1,0.2,0.3,0.2,0.3
	c0.8,0,1.6,0,2.4,0c0-2.7,0-5.3,0-7.9c0.8,0,1.6,0,2.5,0c0-3.8,0-7.5,0-11.3C30.6,16.6,28.3,16.2,26,15.8z M25.4,36.2
	c-0.1-1.3-0.2-2.5-0.4-3.8c-1.6,1.3-3.1,2.5-4.7,3.8C22.1,36.2,23.7,36.2,25.4,36.2z M20.2,14.8c-0.1,1.5-0.3,2.9-0.4,4.4
	c1.3-1.1,2.4-2.3,3.6-3.5c0.1-0.1,0.1-0.2,0.1-0.3C22.3,15.2,21.3,15,20.2,14.8z M24.3,25.2c-1.3,1.2-2.5,2.4-3.7,3.6
	c1.4,0,2.7,0,4,0C24.6,27.6,24.4,26.4,24.3,25.2z M18.3,34.6c1.4-1.1,2.7-2.2,4.1-3.4c-1.3,0-2.6,0-3.8,0
	C18.5,32.4,18.4,33.5,18.3,34.6z M22.2,23.8c-0.7,0-1.3,0-1.8,0c-1,0-1,0-1.1,1c-0.1,0.6-0.1,1.3-0.2,2
	C20.1,25.8,21.1,24.8,22.2,23.8z M23.7,19c-0.8,0.8-1.5,1.5-2.3,2.3c0.8,0,1.6,0,2.5,0C23.9,20.5,23.8,19.7,23.7,19z"/>
</svg>
