<?xml version="1.0" encoding="utf-8"?>
<!-- Generator: Adobe Illustrator 24.0.1, SVG Export Plug-In . SVG Version: 6.00 Build 0)  -->
<svg version="1.1" id="Layer_1" xmlns="http://www.w3.org/2000/svg" xmlns:xlink="http://www.w3.org/1999/xlink" x="0px" y="0px"
	 viewBox="0 0 45 45" style="enable-background:new 0 0 45 45;" xml:space="preserve">
<style type="text/css">
	.st0{fill:#9D8B5B;}
</style>
<g>
	<path class="st0" d="M23.8,2c0.8,0.1,1.5,0.2,2.3,0.3c8.2,1.4,15,8,16.5,16.2c1.3,7-0.5,13.2-5.5,18.4c-3.3,3.4-7.4,5.4-12.2,6
		c-0.4,0-0.8,0.1-1.2,0.1c0-1,0-2,0-3c5.3-0.5,9.6-2.8,12.9-7.1c2.5-3.3,3.6-7.1,3.4-11.2c-0.2-4.4-1.9-8.2-5-11.4
		c-3.1-3.2-6.9-4.9-11.3-5.2C23.7,4,23.7,3,23.8,2C23.7,2,23.8,2,23.8,2z"/>
	<path class="st0" d="M2,21.2c0.1-0.8,0.2-1.6,0.3-2.3c0.1-0.5,0.2-1,0.3-1.6c0.1,0,0.2,0,0.3,0c2,0,4.1,0,6.1,0
		c1.3,0,2.2,0.8,2.4,2c0.1,0.9-0.2,1.7-1,2.3c-0.9,0.7-1.5,1.7-1.8,2.9c-0.3,1.3,0,2.6,0.8,3.7c0.6,0.9,0.9,1.8,0.7,2.9
		c-0.2,1.1-0.7,1.9-1.7,2.5C7.8,34.1,7,34.5,6.2,35c-0.9-1.1-1.6-2.3-2.2-3.5c-1.1-2.3-1.8-4.7-1.9-7.3c0-0.1,0-0.3-0.1-0.4
		C2,22.9,2,22.1,2,21.2z"/>
	<path class="st0" d="M21.3,2c0,2.8,0,5.6,0,8.4c0,0,0,0,0,0.1c-0.9,0-1.9-0.2-2.7-0.5C16,9,14.6,7.1,14,4.5
		c-0.1-0.6-0.1-0.6,0.4-0.9c2.1-0.9,4.2-1.4,6.4-1.6C21,2.1,21.1,2,21.3,2C21.2,2,21.3,2,21.3,2z"/>
	<path class="st0" d="M21.3,13c0,2.8,0,5.5,0,8.3c-2.1-0.1-3.9,0.5-5.2,2.2c-0.8,1.1-1.2,2.3-1.1,3.7c0.1,2.8,2.7,5.6,6.3,5.2
		c0,3.5,0,7,0,10.5c-3.2,0.6-11-3-13.4-6.1c0.6-0.3,1.1-0.6,1.7-0.9c2.1-1.3,3.1-3.1,3.1-5.5c0-1.2-0.4-2.3-1-3.3
		c-0.9-1.3-0.7-2.6,0.5-3.6c1.6-1.3,2.2-3,1.6-5c-0.5-1.9-1.9-3.1-3.9-3.5c-0.3-0.1-0.6,0-0.9-0.1c-1.7,0-3.3,0-5,0
		c-0.1,0-0.3,0-0.5,0c1.7-4.2,4.4-7.4,8.2-9.8c0.5,2.3,1.6,4.2,3.4,5.7C16.9,12.2,18.9,13,21.3,13z"/>
	<path class="st0" d="M23.7,37.5c0-1,0-2,0-3c3.5-0.4,6.3-2,8.4-4.8c1.6-2.1,2.4-4.6,2.4-7.2c0-3.1-1.1-5.8-3.1-8
		c-2.1-2.3-4.6-3.5-7.7-3.9c0-1,0-2,0-3c5.9,0.2,13.2,5.2,13.8,13.9C38.2,30.2,31.4,37,23.7,37.5z"/>
	<path class="st0" d="M23.7,32.1c0-1,0-2,0-3c1.7-0.4,3.2-1.3,4.2-2.7c0.8-1.2,1.2-2.5,1.2-3.9c-0.1-2.8-1.9-5.6-5.4-6.4
		c0-1,0-2,0-3c3.7,0.2,8.3,3.7,8.4,9.4C32.2,27.9,27.8,31.7,23.7,32.1z"/>
	<path class="st0" d="M21.3,23.8c0,2.1,0,4.1,0,6.1c-1,0.4-2.3,0-3.2-0.9c-0.9-1-1.1-2.4-0.5-3.5C18.3,24.2,19.6,23.6,21.3,23.8z"/>
	<path class="st0" d="M23.7,26.5c0-2.7,0-5.3,0-8c1.4,0.1,2.9,1.9,3,3.7C26.9,24.1,25.5,26.2,23.7,26.5z"/>
</g>
</svg>
