<?xml version="1.0" encoding="utf-8"?>
<!-- Generator: Adobe Illustrator 24.0.1, SVG Export Plug-In . SVG Version: 6.00 Build 0)  -->
<svg version="1.1" id="Layer_1" xmlns="http://www.w3.org/2000/svg" xmlns:xlink="http://www.w3.org/1999/xlink" x="0px" y="0px"
	 viewBox="0 0 410.4 410.4" style="enable-background:new 0 0 410.4 410.4;" xml:space="preserve">
<g>
	<path d="M403.2,266.4c0-69.9,0-139.9,0-209.8c0-24-14.8-42.9-37.7-48.3c-4-0.9-8.2-1.2-12.2-1.2C254.5,7,155.9,7,57.2,7
		C31.5,7,12.7,22.7,7.8,48.1c-0.1,0.5-0.4,0.9-0.6,1.4c0,103.6,0,207.2,0,310.8c2.1,6,3.4,12.4,6.4,17.9
		c7.4,13.4,19.1,21.4,34.4,23.9c0.6,0.1,1.2,0.4,1.8,0.7c52.8,0,157.4,0,212.7,0c1.3,0,2.7,0,4,0c31.4,0,62.8,0,94.3,0
		c6-2.1,12.5-3.3,18-6.5c16.2-9.2,24.4-23.7,24.5-42.3C403.3,324.9,403.2,295.6,403.2,266.4z M379.9,352.2
		c0,16.9-10.4,27.3-27.2,27.3l-294.4,0c-17.4,0-27.6-10.3-27.6-27.6c0-98.1,0-196.1,0-294.2c0-13.5,6.6-23.1,18.3-26.3
		c2.8-0.8,5.8-1.1,8.8-1.1c98.3-0.1,196.7-0.1,295,0c16.8,0,27.2,10.4,27.2,27.3C379.9,155.8,379.9,254,379.9,352.2z"/>
	<path d="M98.7,204.9c0-58.8,48-106.6,106.7-106.5c58.9,0.2,106.2,47.4,106.4,106.3c0.2,58.7-47.6,106.7-106.5,106.7
		C146.6,311.5,98.7,263.6,98.7,204.9z M205.3,273.9c38.3,0,69-30.7,69.1-68.9c0.1-38.2-30.6-69-68.8-69.1
		c-38.4-0.1-69.3,30.7-69.3,69.1C136.3,243.2,167,273.9,205.3,273.9z"/>
	<path d="M319.9,63.6c15.5,0.3,27.4,12.8,26.9,28.5c-0.4,15.2-12.9,27.1-28.2,26.8c-15.2-0.3-27.4-13.1-27-28.5
		C291.9,75.2,304.6,63.3,319.9,63.6z"/>
</g>
</svg>
