<?xml version="1.0" encoding="utf-8"?>
<!-- Generator: Adobe Illustrator 24.0.1, SVG Export Plug-In . SVG Version: 6.00 Build 0)  -->
<svg version="1.1" id="Layer_1" xmlns="http://www.w3.org/2000/svg" xmlns:xlink="http://www.w3.org/1999/xlink" x="0px" y="0px"
	 viewBox="0 0 410.4 410.4" style="enable-background:new 0 0 410.4 410.4;" xml:space="preserve">
<g>
	<path d="M403.2,266.4c0-69.9,0-139.9,0-209.8c0-24-14.8-42.9-37.7-48.3c-4-0.9-8.2-1.2-12.2-1.2C254.5,7,155.9,7,57.2,7
		C31.5,7,12.7,22.7,7.8,48.1c-0.1,0.5-0.4,0.9-0.6,1.4c0,103.6,0,207.2,0,310.8c2.1,6,3.4,12.4,6.4,17.9
		c7.4,13.4,19.1,21.4,34.4,23.9c0.6,0.1,1.2,0.4,1.8,0.7c52.8,0,157.4,0,212.7,0c1.3,0,2.7,0,4,0c31.4,0,62.8,0,94.3,0
		c6-2.1,12.5-3.3,18-6.5c16.2-9.2,24.4-23.7,24.5-42.3C403.3,324.9,403.2,295.6,403.2,266.4z M379.9,352.2
		c0,16.9-10.4,27.3-27.2,27.3l-294.4,0c-17.4,0-27.6-10.3-27.6-27.6c0-98.1,0-196.1,0-294.2c0-13.5,6.6-23.1,18.3-26.3
		c2.8-0.8,5.8-1.1,8.8-1.1c98.3-0.1,196.7-0.1,295,0c16.8,0,27.2,10.4,27.2,27.3C379.9,155.8,379.9,254,379.9,352.2z"/>
	<g>
		<path d="M311.1,311.4c-14.4,0-28.6,0-43.3,0c0-1.2,0-2.4,0-3.7c0-23.4,0-46.7-0.1-70.1c0-4.5-0.5-9-1.2-13.4
			c-2.5-14.7-12.3-21.7-27-19.3c-11.9,1.9-18.9,8.8-21.3,21.5c-0.9,4.9-1.3,10-1.3,15c-0.1,22.1-0.1,44.2-0.1,66.3
			c0,1.1,0,2.3,0,3.6c-14.3,0-28.4,0-42.6,0c0-47.2,0-94.4,0-141.7c14.1,0,28.2,0,42.6,0c0,6,0,12,0,17.9
			c5.8-8.4,13.3-14.2,22.7-17.4c15.5-5.2,31-4.6,46,1.8c12.8,5.5,19.5,16.2,22.4,29.3c1.7,7.6,2.9,15.5,3,23.3
			C311.3,253.4,311.1,282.3,311.1,311.4z"/>
		<path d="M146.2,311.4c-14.6,0-29,0-43.6,0c0-47.3,0-94.4,0-141.7c14.4,0,28.9,0,43.6,0C146.2,216.8,146.2,264,146.2,311.4z"/>
		<path d="M99.3,124c0-14.2,11.7-25.7,25.9-25.7c14.2,0,25.7,11.7,25.7,25.9c0,14.2-11.7,25.7-25.9,25.7
			C110.8,149.9,99.3,138.2,99.3,124z"/>
	</g>
</g>
</svg>
