<?xml version="1.0" encoding="utf-8"?>
<!-- Generator: Adobe Illustrator 24.0.1, SVG Export Plug-In . SVG Version: 6.00 Build 0)  -->
<svg version="1.1" id="Layer_1" xmlns="http://www.w3.org/2000/svg" xmlns:xlink="http://www.w3.org/1999/xlink" x="0px" y="0px"
	 viewBox="0 0 935 202" style="enable-background:new 0 0 935 202;" xml:space="preserve">
<style type="text/css">
	.st0{fill:#816C3B;}
</style>
<g>
	<path class="st0" d="M399,137.3c-0.3-35.2-28.9-63.7-64.2-63.7c-35.5,0-64.2,28.7-64.2,64.2s28.7,64.2,64.2,64.2c0.2,0,0.3,0,0.5,0
		v0H399L399,137.3L399,137.3z M377.8,180.8h-42.6v0c-0.1,0-0.2,0-0.3,0c-23.7,0-43-19.2-43-43s19.2-43,43-43
		c23.6,0,42.8,19.1,43,42.6l0,0V180.8z"/>
	<path class="st0" d="M690.6,137.3c-0.3-35.2-28.9-63.7-64.2-63.7c-35.5,0-64.2,28.7-64.2,64.2s28.7,64.2,64.2,64.2
		c0.2,0,0.3,0,0.5,0v0h63.7L690.6,137.3L690.6,137.3z M669.4,180.8h-42.6v0c-0.1,0-0.2,0-0.3,0c-23.7,0-43-19.2-43-43s19.2-43,43-43
		c23.6,0,42.8,19.1,43,42.6l0,0V180.8z"/>
	<path class="st0" d="M836.4,137.3c-0.3-35.2-28.9-63.7-64.2-63.7c-35.5,0-64.2,28.7-64.2,64.2s28.7,64.2,64.2,64.2
		c0.2,0,0.3,0,0.5,0v0h63.7L836.4,137.3L836.4,137.3z M815.2,180.8h-42.6v0c-0.1,0-0.2,0-0.3,0c-23.7,0-43-19.2-43-43s19.2-43,43-43
		c23.6,0,42.8,19.1,43,42.6l0,0V180.8z"/>
	<path class="st0" d="M544.8,137.3c-0.3-35.2-28.9-63.7-64.2-63.7s-63.9,28.5-64.2,63.7h0V202h22.2v-64.5h0
		c0.2-23,18.9-41.7,42-41.7s41.8,18.6,42,41.7h0V202h22.2L544.8,137.3L544.8,137.3z"/>
	<line class="st0" x1="544.8" y1="202" x2="544.8" y2="137.3"/>
	<path class="st0" d="M917.5,73.6c-35.1,0.3-63.5,28.6-63.7,63.7h0V202H876v-64.5h0c0.2-22.9,18.6-41.4,41.5-41.7V73.6z"/>
	<g>
		<g>
			<g>
				<path class="st0" d="M207.3,17.6L224.5,143c7.9-15.1,12.3-32.3,12.3-50.6C236.8,63.5,225.6,37.2,207.3,17.6z"/>
				<path class="st0" d="M46,17.6C28.3,37.3,17.5,63.3,17.5,91.8c0,18.5,4.5,35.9,12.5,51.2L46,17.6z"/>
				<path class="st0" d="M184.8,26.3l-39.5,136.3c-1.4,4.6-3.5,8.4-6.2,11.4c-2.7,3-6.2,4.9-10.2,5.5l-4,0.1
					c-4.2-0.3-7.9-2.1-10.8-5.1c-2.7-2.9-4.7-6.5-5.8-10.8l-40-137.3L50.9,171.1c19.7,19.2,46.6,30.9,76.3,30.9
					c29.9,0,56.9-12,76.7-31.3L184.8,26.3z"/>
			</g>
		</g>
	</g>
</g>
</svg>
