<?xml version="1.0" encoding="utf-8"?>
<!-- Generator: Adobe Illustrator 24.0.1, SVG Export Plug-In . SVG Version: 6.00 Build 0)  -->
<svg version="1.1" id="Layer_1" xmlns="http://www.w3.org/2000/svg" xmlns:xlink="http://www.w3.org/1999/xlink" x="0px" y="0px"
	 viewBox="0 0 313 244.8" style="enable-background:new 0 0 313 244.8;" xml:space="preserve">
<style type="text/css">
	.st0{fill:#95C020;}
	.st1{fill:#0991CE;}
</style>
<text transform="matrix(1 0 0 1 2202.8738 53.2207)" style="font-family:'Poppins-SemiBold'; font-size:106px;">mindfire</text>
<text transform="matrix(1 0 0 1 2202.8738 122.2207)" style="font-family:'Poppins-ExtraLight'; font-size:72px;">technologies</text>
<g>
	<path class="st0" d="M224.6,199.7L137.9,27.2c-7.7-17-29.8-16.3-38.1,0L11.4,199.7c-6.2,12.9,0,24.1,9.9,29.6
		c11,2.1,22.4,0,27.4-10.5l70.2-143.6l70,143.6C200.1,242.8,237.2,223.7,224.6,199.7"/>
	<path class="st1" d="M301.6,199.7L214.8,27.2c-7.6-17-29.8-16.3-38.1,0L88.4,199.7c-6.2,12.9,0,24.1,9.8,29.6
		c11.1,2.1,22.5,0,27.4-10.5l70.1-143.6l70.2,143.6C277,242.8,314.2,223.7,301.6,199.7"/>
</g>
</svg>
