<?xml version="1.0" encoding="utf-8"?>
<!-- Generator: Adobe Illustrator 25.2.0, SVG Export Plug-In . SVG Version: 6.00 Build 0)  -->
<svg version="1.1" id="Layer_1" xmlns="http://www.w3.org/2000/svg" xmlns:xlink="http://www.w3.org/1999/xlink" x="0px" y="0px"
	 viewBox="0 0 1385.3 244.8" style="enable-background:new 0 0 1385.3 244.8;" xml:space="preserve">
<style type="text/css">
	.st0{fill:#95C020;}
	.st1{fill:#0991CE;}
	.st2{fill:#1D1D1B;}
	.st3{fill:#8B8887;}
</style>
<text transform="matrix(1 0 0 1 2202.8738 53.2207)" style="font-family:'Poppins-SemiBold'; font-size:106px;">mindfire</text>
<text transform="matrix(1 0 0 1 2202.8738 122.2207)" style="font-family:'Poppins-ExtraLight'; font-size:72px;">technologies</text>
<g>
	<g>
		<path class="st0" d="M223.7,190.9L137,18.4c-7.7-17-29.8-16.3-38.1,0L10.5,190.9c-6.2,12.9,0,24.1,9.9,29.6
			c11,2.1,22.4,0,27.4-10.5l70.2-143.6L188,210C199.2,234,236.3,214.9,223.7,190.9"/>
		<path class="st1" d="M300.7,190.9L213.9,18.4c-7.6-17-29.8-16.3-38.1,0L87.5,190.9c-6.2,12.9,0,24.1,9.8,29.6
			c11.1,2.1,22.5,0,27.4-10.5l70.1-143.6L265,210C276.1,234,313.3,214.9,300.7,190.9"/>
	</g>
	<g>
		<path class="st2" d="M339.6,104.2l0.5,6.5c4.1-5,9.6-7.5,16.6-7.5c7.4,0,12.5,2.9,15.3,8.8c4.1-5.9,9.8-8.8,17.3-8.8
			c6.3,0,10.9,1.8,14,5.5c3.1,3.6,4.6,9.1,4.6,16.5v36.9h-15.5v-36.8c0-3.3-0.6-5.7-1.9-7.2c-1.3-1.5-3.5-2.3-6.8-2.3
			c-4.6,0-7.8,2.2-9.6,6.6l0.1,39.6h-15.4v-36.8c0-3.3-0.7-5.8-2-7.3c-1.3-1.5-3.6-2.2-6.7-2.2c-4.4,0-7.5,1.8-9.5,5.4v40.8h-15.4
			v-57.7H339.6z"/>
		<path class="st2" d="M419.6,89.3c0-2.3,0.8-4.2,2.3-5.7c1.5-1.5,3.7-2.2,6.3-2.2c2.6,0,4.7,0.7,6.3,2.2c1.6,1.5,2.3,3.4,2.3,5.7
			c0,2.3-0.8,4.3-2.4,5.8c-1.6,1.5-3.7,2.2-6.3,2.2s-4.7-0.7-6.3-2.2C420.4,93.6,419.6,91.6,419.6,89.3z M436,161.9h-15.5v-57.7H436
			V161.9z"/>
		<path class="st2" d="M462.9,104.2l0.5,6.7c4.1-5.2,9.7-7.7,16.6-7.7c6.1,0,10.7,1.8,13.7,5.4c3,3.6,4.5,9,4.6,16.1v37.3h-15.4V125
			c0-3.3-0.7-5.6-2.1-7.1c-1.4-1.5-3.8-2.2-7.1-2.2c-4.3,0-7.6,1.9-9.8,5.5v40.7h-15.4v-57.7H462.9z"/>
		<path class="st2" d="M507.5,132.7c0-9,2-16.2,6.1-21.5c4-5.3,9.6-8,16.6-8c5.6,0,10.3,2.1,13.9,6.3V80h15.5v81.9h-13.9l-0.7-6.1
			c-3.8,4.8-8.8,7.2-14.8,7.2c-6.8,0-12.2-2.7-16.4-8S507.5,142.2,507.5,132.7z M522.9,133.8c0,5.4,0.9,9.6,2.8,12.5
			c1.9,2.9,4.6,4.3,8.2,4.3c4.8,0,8.1-2,10.1-6v-22.8c-1.9-4-5.2-6-10-6C526.6,115.7,522.9,121.7,522.9,133.8z"/>
		<path class="st2" d="M575.7,161.9v-46.4h-8.6v-11.3h8.6v-4.9c0-6.5,1.9-11.5,5.6-15.1c3.7-3.6,8.9-5.4,15.6-5.4
			c2.1,0,4.7,0.4,7.8,1.1l-0.2,12c-1.3-0.3-2.8-0.5-4.7-0.5c-5.8,0-8.7,2.7-8.7,8.2v4.6h11.5v11.3h-11.5v46.4H575.7z"/>
		<path class="st2" d="M610.5,89.3c0-2.3,0.8-4.2,2.3-5.7c1.5-1.5,3.7-2.2,6.3-2.2c2.6,0,4.7,0.7,6.3,2.2c1.6,1.5,2.3,3.4,2.3,5.7
			c0,2.3-0.8,4.3-2.4,5.8c-1.6,1.5-3.7,2.2-6.3,2.2s-4.7-0.7-6.3-2.2C611.3,93.6,610.5,91.6,610.5,89.3z M626.9,161.9h-15.5v-57.7
			h15.5V161.9z"/>
		<path class="st2" d="M672,118.7c-2.1-0.3-3.9-0.4-5.5-0.4c-5.8,0-9.7,2-11.5,5.9v37.8h-15.4v-57.7h14.6l0.4,6.9
			c3.1-5.3,7.4-7.9,12.9-7.9c1.7,0,3.3,0.2,4.8,0.7L672,118.7z"/>
		<path class="st2" d="M705,163c-8.5,0-15.4-2.6-20.7-7.8s-8-12.1-8-20.8V133c0-5.8,1.1-11,3.4-15.6c2.2-4.6,5.4-8.1,9.5-10.6
			c4.1-2.5,8.8-3.7,14.1-3.7c7.9,0,14.1,2.5,18.6,7.5c4.5,5,6.8,12,6.8,21.2v6.3H692c0.5,3.8,2,6.8,4.5,9.1c2.5,2.3,5.7,3.4,9.5,3.4
			c5.9,0,10.6-2.2,13.9-6.5l7.6,8.5c-2.3,3.3-5.4,5.8-9.4,7.7S709.8,163,705,163z M703.2,115.6c-3.1,0-5.5,1-7.4,3.1
			c-1.9,2.1-3.1,5-3.7,8.9h21.4v-1.2c-0.1-3.4-1-6.1-2.8-8C709,116.5,706.5,115.6,703.2,115.6z"/>
		<path class="st3" d="M752.4,90.2v14h10.8v7.6h-10.8v35.8c0,2.3,0.5,4.1,1.4,5.2c1,1.2,2.6,1.7,4.9,1.7c1.1,0,2.7-0.2,4.7-0.6v8
			c-2.6,0.7-5.1,1.1-7.6,1.1c-4.4,0-7.7-1.3-10-4c-2.2-2.7-3.4-6.5-3.4-11.4v-35.8H732v-7.6h10.5v-14H752.4z"/>
		<path class="st3" d="M798.7,163c-7.8,0-14.2-2.6-19.1-7.7c-4.9-5.1-7.4-12-7.4-20.6v-1.8c0-5.7,1.1-10.8,3.3-15.3
			c2.2-4.5,5.2-8,9.2-10.6c3.9-2.5,8.2-3.8,12.8-3.8c7.5,0,13.3,2.5,17.5,7.4c4.2,4.9,6.2,12,6.2,21.2v4.1h-39.1
			c0.1,5.7,1.8,10.3,5,13.8c3.2,3.5,7.2,5.3,12.1,5.3c3.5,0,6.4-0.7,8.9-2.1c2.4-1.4,4.5-3.3,6.3-5.7l6,4.7
			C815.6,159.3,808.3,163,798.7,163z M797.4,111.3c-4,0-7.3,1.4-10,4.3c-2.7,2.9-4.4,7-5,12.2h28.9v-0.7c-0.3-5-1.6-8.9-4.1-11.7
			C804.8,112.6,801.6,111.3,797.4,111.3z"/>
		<path class="st3" d="M855.8,155c3.5,0,6.6-1.1,9.2-3.2c2.6-2.1,4.1-4.8,4.4-8h9.3c-0.2,3.3-1.3,6.5-3.4,9.4
			c-2.1,3-4.9,5.4-8.4,7.1c-3.5,1.8-7.2,2.7-11.1,2.7c-7.9,0-14.1-2.6-18.8-7.9s-7-12.4-7-21.5V132c0-5.6,1-10.6,3.1-15
			c2.1-4.4,5-7.8,8.9-10.2c3.9-2.4,8.4-3.6,13.7-3.6c6.5,0,11.9,1.9,16.1,5.8c4.3,3.9,6.6,8.9,6.9,15.1h-9.3
			c-0.3-3.7-1.7-6.8-4.2-9.2c-2.5-2.4-5.7-3.6-9.4-3.6c-5,0-8.9,1.8-11.7,5.4c-2.8,3.6-4.1,8.8-4.1,15.7v1.9
			c0,6.7,1.4,11.8,4.1,15.4C846.8,153.2,850.7,155,855.8,155z"/>
		<path class="st3" d="M899.7,111.2c4.4-5.4,10.1-8.1,17.1-8.1c12.2,0,18.4,6.9,18.5,20.6v38.1h-9.9v-38.2c0-4.2-1-7.2-2.9-9.2
			c-1.9-2-4.8-3-8.7-3c-3.2,0-6,0.9-8.4,2.6c-2.4,1.7-4.3,3.9-5.7,6.7v41.1h-9.9V80h9.9V111.2z"/>
		<path class="st3" d="M959.3,104.2l0.3,7.3c4.4-5.5,10.2-8.3,17.3-8.3c12.2,0,18.4,6.9,18.5,20.6v38.1h-9.9v-38.2
			c0-4.2-1-7.2-2.9-9.2c-1.9-2-4.8-3-8.7-3c-3.2,0-6,0.9-8.4,2.6c-2.4,1.7-4.3,3.9-5.7,6.7v41.1H950v-57.7H959.3z"/>
		<path class="st3" d="M1007.6,132.6c0-5.7,1.1-10.7,3.3-15.3c2.2-4.5,5.3-8,9.3-10.5s8.5-3.7,13.6-3.7c7.9,0,14.2,2.7,19.1,8.2
			c4.9,5.4,7.3,12.7,7.3,21.7v0.7c0,5.6-1.1,10.7-3.2,15.1c-2.2,4.5-5.2,7.9-9.2,10.4c-4,2.5-8.6,3.7-13.8,3.7
			c-7.8,0-14.2-2.7-19-8.2c-4.9-5.4-7.3-12.6-7.3-21.6V132.6z M1017.6,133.7c0,6.4,1.5,11.5,4.5,15.4c3,3.9,6.9,5.8,11.9,5.8
			c5,0,9-2,12-5.9c3-3.9,4.4-9.4,4.4-16.5c0-6.3-1.5-11.5-4.5-15.4c-3-3.9-7-5.9-12-5.9c-4.9,0-8.8,1.9-11.8,5.8
			C1019.1,121,1017.6,126.5,1017.6,133.7z"/>
		<path class="st3" d="M1083.3,161.9h-9.9V80h9.9V161.9z"/>
		<path class="st3" d="M1096.5,132.6c0-5.7,1.1-10.7,3.3-15.3c2.2-4.5,5.3-8,9.3-10.5s8.5-3.7,13.6-3.7c7.9,0,14.2,2.7,19.1,8.2
			c4.9,5.4,7.3,12.7,7.3,21.7v0.7c0,5.6-1.1,10.7-3.2,15.1c-2.2,4.5-5.2,7.9-9.2,10.4c-4,2.5-8.6,3.7-13.8,3.7
			c-7.8,0-14.2-2.7-19-8.2c-4.9-5.4-7.3-12.6-7.3-21.6V132.6z M1106.4,133.7c0,6.4,1.5,11.5,4.5,15.4c3,3.9,6.9,5.8,11.9,5.8
			c5,0,9-2,12-5.9c3-3.9,4.4-9.4,4.4-16.5c0-6.3-1.5-11.5-4.5-15.4c-3-3.9-7-5.9-12-5.9c-4.9,0-8.8,1.9-11.8,5.8
			C1107.9,121,1106.4,126.5,1106.4,133.7z"/>
		<path class="st3" d="M1159.1,132.6c0-9,2.1-16.2,6.2-21.5c4.2-5.3,9.7-8,16.5-8c7,0,12.5,2.5,16.5,7.5l0.5-6.4h9v56.3
			c0,7.5-2.2,13.4-6.6,17.7c-4.4,4.3-10.4,6.5-17.8,6.5c-4.2,0-8.2-0.9-12.2-2.7c-4-1.8-7-4.2-9.1-7.3l5.1-5.9
			c4.2,5.2,9.4,7.8,15.5,7.8c4.8,0,8.5-1.4,11.2-4.1c2.7-2.7,4-6.5,4-11.4v-5c-3.9,4.6-9.3,6.8-16.2,6.8c-6.8,0-12.2-2.7-16.4-8.2
			C1161.1,149.4,1159.1,142,1159.1,132.6z M1169,133.7c0,6.5,1.3,11.6,4,15.3c2.7,3.7,6.4,5.6,11.2,5.6c6.2,0,10.8-2.8,13.7-8.5
			v-26.4c-3-5.5-7.6-8.3-13.6-8.3c-4.8,0-8.6,1.9-11.3,5.6C1170.3,120.9,1169,126.4,1169,133.7z"/>
		<path class="st3" d="M1222.8,88.9c0-1.6,0.5-3,1.5-4.1c1-1.1,2.4-1.7,4.3-1.7s3.4,0.6,4.4,1.7c1,1.1,1.5,2.5,1.5,4.1
			s-0.5,2.9-1.5,4c-1,1.1-2.5,1.6-4.4,1.6s-3.4-0.5-4.3-1.6C1223.2,91.8,1222.8,90.5,1222.8,88.9z M1233.4,161.9h-9.9v-57.7h9.9
			V161.9z"/>
		<path class="st3" d="M1273.2,163c-7.8,0-14.2-2.6-19.1-7.7c-4.9-5.1-7.4-12-7.4-20.6v-1.8c0-5.7,1.1-10.8,3.3-15.3
			c2.2-4.5,5.2-8,9.2-10.6c3.9-2.5,8.2-3.8,12.8-3.8c7.5,0,13.3,2.5,17.5,7.4c4.2,4.9,6.2,12,6.2,21.2v4.1h-39.1
			c0.1,5.7,1.8,10.3,5,13.8c3.2,3.5,7.2,5.3,12.1,5.3c3.5,0,6.4-0.7,8.9-2.1c2.4-1.4,4.5-3.3,6.3-5.7l6,4.7
			C1290.1,159.3,1282.9,163,1273.2,163z M1272,111.3c-4,0-7.3,1.4-10,4.3c-2.7,2.9-4.4,7-5,12.2h28.9v-0.7c-0.3-5-1.6-8.9-4.1-11.7
			C1279.3,112.6,1276.1,111.3,1272,111.3z"/>
		<path class="st3" d="M1340.7,146.6c0-2.7-1-4.7-3-6.2s-5.5-2.7-10.5-3.8c-5-1.1-9-2.3-11.9-3.8c-2.9-1.5-5.1-3.3-6.5-5.3
			s-2.1-4.5-2.1-7.4c0-4.7,2-8.7,6-12c4-3.3,9.1-4.9,15.3-4.9c6.5,0,11.9,1.7,15.9,5.1c4.1,3.4,6.1,7.7,6.1,13h-9.9
			c0-2.7-1.1-5-3.4-7c-2.3-2-5.2-2.9-8.7-2.9c-3.6,0-6.4,0.8-8.4,2.3c-2,1.6-3,3.6-3,6.1c0,2.4,0.9,4.2,2.8,5.4
			c1.9,1.2,5.3,2.4,10.2,3.5c4.9,1.1,8.9,2.4,12,3.9c3.1,1.5,5.3,3.4,6.8,5.5c1.5,2.2,2.2,4.8,2.2,7.9c0,5.2-2.1,9.3-6.2,12.4
			c-4.1,3.1-9.5,4.7-16.1,4.7c-4.6,0-8.7-0.8-12.3-2.5c-3.6-1.6-6.3-3.9-8.3-6.9c-2-2.9-3-6.1-3-9.5h9.9c0.2,3.3,1.5,5.9,4,7.9
			c2.5,1.9,5.7,2.9,9.8,2.9c3.7,0,6.7-0.8,9-2.3C1339.6,151.2,1340.7,149.2,1340.7,146.6z"/>
	</g>
</g>
</svg>
