<?xml version="1.0" encoding="utf-8"?>
<!-- Generator: Adobe Illustrator 24.0.1, SVG Export Plug-In . SVG Version: 6.00 Build 0)  -->
<svg version="1.1" id="Layer_1" xmlns="http://www.w3.org/2000/svg" xmlns:xlink="http://www.w3.org/1999/xlink" x="0px" y="0px"
	 viewBox="0 0 45 45" style="enable-background:new 0 0 45 45;" xml:space="preserve">
<g>
	<path d="M0,6.6c0.1-0.3,0.2-0.6,0.3-1c0.8-2.8,3.3-4.7,6.2-4.7c9.4,0,18.8,0,28.2,0c2.9,0,5.4,1.9,6.2,4.6c0.8,2.7-0.1,5.7-2.5,7.3
		c-0.1,0.1-0.2,0.2-0.3,0.2c0.2,0.2,0.4,0.3,0.5,0.4c0.4,0.3,0.5,0.9,0.2,1.3c-0.3,0.4-0.8,0.6-1.3,0.2c-1.1-0.8-2.3-1-3.6-1
		c-9.1,0-18.2,0-27.3,0c-2.4,0-4.5,1.8-4.7,4.2C1.7,20.8,3.4,23,6,23.4c0.2,0,0.4,0,0.5,0c3.7,0,7.4,0,11.2,0c0.8,0,1.3,0.6,1,1.3
		c-0.1,0.4-0.5,0.6-1,0.6c-2.1,0-4.3,0-6.4,0c-1.6,0-3.2,0-4.8,0c-2.3,0-4.3,1.9-4.6,4.1c-0.3,2.8,1.7,4.8,3.7,5.2
		c0.4,0.1,0.8,0.1,1.2,0.1c3.6,0,7.1,0,10.7,0c0.2,0,0.4,0,0.6,0.1c0.4,0.1,0.6,0.5,0.6,0.9c0,0.4-0.2,0.7-0.6,0.8
		c-0.2,0.1-0.4,0.1-0.6,0.1c-3.7,0-7.3,0-11,0c-3,0-5.6-2-6.4-4.9c-0.1-0.3-0.1-0.6-0.2-0.8c0-0.6,0-1.2,0-1.8
		c0-0.1,0.1-0.1,0.1-0.2c0.2-1.1,0.6-2.1,1.3-2.9c0.5-0.6,1.1-1.1,1.7-1.7c-0.1-0.1-0.2-0.1-0.3-0.2c-1.3-0.9-2.1-2.1-2.5-3.6
		c-0.1-0.3-0.1-0.6-0.2-0.8c0-0.6,0-1.2,0-1.8c0-0.1,0.1-0.1,0.1-0.2c0.2-1.1,0.6-2.1,1.3-2.9c0.5-0.6,1.1-1.1,1.7-1.7
		C3,13,2.9,12.9,2.8,12.9c-1.3-0.9-2.1-2.1-2.5-3.6C0.1,9,0.1,8.7,0,8.4C0,7.8,0,7.2,0,6.6z M20.6,12.2c4.7,0,9.5,0,14.2,0
		c2.9,0,5.1-2.9,4.4-5.7c-0.5-2.2-2.3-3.6-4.7-3.6c-9.3,0-18.6,0-27.9,0c-0.3,0-0.7,0-1,0.1c-2,0.3-4.1,2.3-3.7,5.2
		c0.2,2.2,2.3,4,4.6,4C11.2,12.2,15.9,12.2,20.6,12.2z"/>
	<path d="M33.4,44.1c-0.9-0.5-1.7-0.9-2.5-1.4c-2.7-1.6-5-3.6-6.6-6.4c-1.1-1.9-1.8-4-1.7-6.3c0-2.5,0-5.1,0-7.6
		c0-0.7,0.2-0.9,0.8-1.2c3.3-1.1,6.6-2.3,10-3.4c0.3-0.1,0.6-0.1,0.9,0c3.3,1.1,6.6,2.2,9.9,3.3c0.7,0.2,0.9,0.5,0.9,1.2
		c0,2.4,0,4.8,0,7.2c0.1,3.3-1.1,6.2-3.2,8.7c-2,2.4-4.5,4.1-7.3,5.5c-0.2,0.1-0.3,0.2-0.4,0.3C33.9,44.1,33.6,44.1,33.4,44.1z
		 M43.1,27.1C43.1,27.1,43.1,27.1,43.1,27.1c0-1.3,0-2.5,0-3.8c0-0.3-0.1-0.4-0.4-0.5c-2.9-1-5.8-1.9-8.6-2.9
		c-0.2-0.1-0.5-0.1-0.7,0c-2.9,1-5.8,1.9-8.7,2.9c-0.3,0.1-0.4,0.3-0.4,0.5c0,2.2,0,4.4,0,6.5c0,1.8,0.4,3.6,1.3,5.2
		c1.8,3.2,4.6,5.3,7.8,6.9c0.1,0.1,0.3,0,0.5,0c2.4-1.2,4.5-2.8,6.3-4.8c1.6-1.9,2.6-4,2.7-6.4C43.1,29.5,43.1,28.3,43.1,27.1z"/>
	<path d="M11.2,18.8c0,1.6-1.2,2.8-2.8,2.8c-1.6,0-2.8-1.2-2.8-2.8c0-1.6,1.2-2.8,2.8-2.8C10,16,11.2,17.2,11.2,18.8z M8.4,17.9
		c-0.5,0-0.9,0.4-0.9,0.9c0,0.5,0.4,0.9,0.9,0.9c0.5,0,0.9-0.4,0.9-0.9C9.4,18.3,9,17.9,8.4,17.9z"/>
	<path d="M8.4,32.8c-1.6,0-2.8-1.2-2.8-2.8c0-1.6,1.2-2.8,2.8-2.8c1.6,0,2.8,1.2,2.8,2.8C11.2,31.6,10,32.8,8.4,32.8z M8.5,29.1
		c-0.5,0-0.9,0.4-0.9,0.9c0,0.5,0.4,0.9,0.9,0.9c0.5,0,0.9-0.4,0.9-0.9C9.4,29.5,9,29.1,8.5,29.1z"/>
	<path d="M17.8,21.6c-1.6,0-2.8-1.3-2.8-2.8c0-1.6,1.3-2.8,2.8-2.8c1.6,0,2.8,1.3,2.8,2.8C20.6,20.3,19.4,21.6,17.8,21.6z
		 M17.8,19.7c0.5,0,0.9-0.4,0.9-0.9c0-0.5-0.4-0.9-0.9-0.9c-0.5,0-0.9,0.4-0.9,0.9C16.9,19.3,17.3,19.7,17.8,19.7z"/>
	<path d="M17.8,32.8c-1.6,0-2.8-1.3-2.8-2.8c0-1.6,1.3-2.8,2.8-2.8c1.6,0,2.8,1.3,2.8,2.8C20.6,31.6,19.4,32.8,17.8,32.8z M18.7,30
		c0-0.5-0.4-0.9-0.9-0.9c-0.5,0-0.9,0.4-0.9,0.9c0,0.5,0.4,0.9,0.9,0.9C18.3,30.9,18.7,30.5,18.7,30z"/>
	<path d="M8.4,10.3c-1.6,0-2.8-1.2-2.8-2.8c0-1.6,1.2-2.8,2.8-2.8c1.6,0,2.8,1.2,2.8,2.8C11.2,9.1,10,10.3,8.4,10.3z M9.3,7.5
		C9.4,7,9,6.6,8.5,6.6C7.9,6.6,7.5,7,7.5,7.5c0,0.5,0.4,0.9,0.9,0.9C8.9,8.4,9.3,8.1,9.3,7.5z"/>
	<path d="M17.8,10.3c-1.6,0-2.8-1.2-2.8-2.8c0-1.6,1.2-2.8,2.8-2.8c1.6,0,2.8,1.3,2.8,2.8C20.6,9.1,19.4,10.3,17.8,10.3z M18.7,7.5
		c0-0.5-0.4-0.9-0.9-0.9c-0.5,0-0.9,0.4-0.9,0.9c0,0.5,0.4,0.9,0.9,0.9C18.3,8.4,18.7,8,18.7,7.5z"/>
	<path d="M32.9,32.3c0.1-0.1,0.3-0.2,0.4-0.4c1.8-1.8,3.6-3.6,5.3-5.3c0.3-0.3,0.6-0.5,1-0.3c0.4,0.1,0.6,0.4,0.7,0.7
		c0.1,0.4-0.1,0.7-0.4,1c-2.1,2.1-4.2,4.2-6.3,6.3c-0.1,0.1-0.1,0.1-0.2,0.2c-0.4,0.4-1,0.4-1.4-0.1c-1.3-1.5-2.5-3.1-3.7-4.7
		c-0.4-0.4-0.3-1,0.1-1.3c0.4-0.3,1-0.3,1.4,0.2c0.9,1.1,1.8,2.2,2.6,3.3C32.6,32,32.7,32.1,32.9,32.3z"/>
</g>
</svg>
