<?xml version="1.0" encoding="utf-8"?>
<!-- Generator: Adobe Illustrator 24.0.1, SVG Export Plug-In . SVG Version: 6.00 Build 0)  -->
<svg version="1.1" id="Layer_1" xmlns="http://www.w3.org/2000/svg" xmlns:xlink="http://www.w3.org/1999/xlink" x="0px" y="0px"
	 viewBox="0 0 512 512" style="enable-background:new 0 0 512 512;" xml:space="preserve">
<g>
	<path d="M238.5,505.6c-9.1-1.3-18.2-2.6-27.3-4c-1.4-0.2-2.9-0.5-4.3-0.9c-5.5-1.5-8.7-6.1-7.7-11.2c1.1-5.7,6-8.8,11.9-8.1
		c13.4,1.6,26.7,4.2,40.1,4.3c75.5,0.5,137.4-28.7,185-87.3c28.2-34.8,44.4-75,48.6-119.5c5.7-60.2-10-114.7-46.5-163.1
		c-0.2-0.2-0.5-0.4-1-0.9c-11.8,5.6-24,6.5-36.3,1c-8.8-3.9-15.3-10.3-19.7-18.8c-8.7-17-4.2-38.1,10.6-50.3
		c14.9-12.3,36.5-12.4,51.7-0.2c12.9,10.3,22,31.6,9.2,53.8c8.3,13.6,17.1,26.5,24.4,40.1c15.9,29.5,24.8,61.2,27.5,94.6
		c0.1,1.4,0.6,2.8,0.9,4.2c0,11.4,0,22.7,0,34.1c-0.3,1.4-0.8,2.8-0.9,4.2c-3.6,42.9-17.3,82.4-41.7,117.8
		c-39.8,57.7-94.2,93.5-163.5,106.2c-8.6,1.6-17.3,2.5-25.9,3.8C261.9,505.6,250.2,505.6,238.5,505.6z M417.1,100.1
		c11.6,0.4,21.6-8.9,22.1-20.7c0.5-11.4-9-21.6-20.7-22.1c-11.4-0.5-21.7,9.1-22.1,20.7C396,89.6,405.4,99.6,417.1,100.1z"/>
	<path d="M390.6,334c3.4,3.2,7.4,7,11.3,10.9c5.5,5.5,5.6,10.6,0.2,16.1c-13.7,13.8-27.5,27.6-41.4,41.4c-5.1,5.1-10.2,5-15.3,0
		c-4.1-4.1-8-8.4-11.2-11.8c-12.6,4.9-24.1,9.2-35.4,13.8c-1.2,0.5-2.3,2.5-2.4,3.9c-0.3,5,0,10.1-0.2,15.1
		c-0.3,6.6-3.9,10.1-10.5,10.1c-19.8,0.1-39.6,0.1-59.5,0c-6.6,0-10.1-3.6-10.4-10.3c-0.2-5,0.2-10.1-0.2-15.1
		c-0.1-1.4-1.6-3.3-3-3.9c-11.1-4.6-22.2-8.8-34.7-13.7c-2.9,3.1-6.7,7.3-10.7,11.3c-5.7,5.7-10.7,5.7-16.4,0.1
		c-13.6-13.5-27.1-27.1-40.6-40.7c-5.6-5.7-5.5-10.6,0.2-16.4c3.2-3.2,6.6-6.3,9.5-9.7c0.9-1.1,1.3-3.5,0.8-4.8
		c-4.1-10.4-8.4-20.7-12.8-30.9c-0.6-1.3-2.5-2.8-4-2.9c-5-0.4-10.1,0-15.1-0.2c-6.6-0.2-10.1-3.8-10.1-10.5c0-19.8,0-39.6,0-59.5
		c0-6.6,3.5-10.2,10.2-10.5c4.9-0.2,9.7-0.1,14.6,0c2.4,0,3.6-0.6,4.6-3.1c3.9-10.3,8.2-20.4,12.6-30.5c1-2.4,1-3.7-0.9-5.4
		c-3.6-3.3-7-6.8-10.3-10.3c-4.5-4.8-4.7-10,0-14.7c14.1-14.2,28.2-28.3,42.4-42.4c4.7-4.6,9.8-4.4,14.7,0.2
		c3.5,3.4,7,6.8,10.3,10.4c1.8,1.9,3.2,1.7,5.5,0.8c10.1-4.4,20.3-8.4,30.4-12.8c1.4-0.6,2.9-2.5,3-4c0.4-5,0-10.1,0.2-15.1
		c0.3-6.6,3.9-10.1,10.5-10.1c19.7,0,39.3,0,59,0c7.2,0,10.7,3.5,10.9,10.8c0.1,4.7,0.1,9.4,0,14.1c-0.1,2.5,0.8,3.6,3.3,4.5
		c10.2,4,20.4,8.2,30.5,12.6c2.4,1.1,3.7,0.8,5.4-1c3.2-3.4,6.6-6.7,10-10c5-4.8,10.2-5,15-0.3c14.1,13.9,28.1,27.9,42.1,42
		c4.9,4.9,4.8,10,0.1,15c-3.2,3.4-6.5,6.8-10,10c-2,1.8-2.2,3.2-1,5.8c4.4,9.9,8.6,19.9,12.5,30c1,2.7,2.3,3.5,4.9,3.4
		c4.5-0.1,9.1-0.1,13.6,0c7.6,0.2,11,3.7,11,11.2c0,19.3,0,38.7,0,58c0,7.8-3.4,11.2-11.3,11.3c-4.7,0.1-9.4-0.2-14.1,0.1
		c-1.3,0.1-3.2,1.4-3.7,2.6C399.7,310.2,395.4,321.5,390.6,334z M98.4,276.6c5,0,9.6,0,14.3,0c7.4,0,10.4,2.2,12.1,9.3
		c3.6,15,9.3,28.9,17.5,42c3.6,5.8,3.1,9.6-1.7,14.4c-3.5,3.5-7.4,6.6-10.9,9.7c10.5,10.6,20,20.1,30.1,30.3
		c3.2-3.5,6.4-7.1,9.8-10.5c5.1-5.1,8.7-5.5,14.7-1.8c13,7.9,26.7,13.9,41.6,17.2c7.2,1.6,9.6,5,9.6,12.4c0,4.8,0,9.6,0,14.1
		c14.2,0,27.6,0,41.1,0c0-5.1,0-9.8,0-14.5c0.1-7,2.4-10.2,9.1-11.8c15.1-3.6,29.3-9.4,42.4-17.7c5.5-3.5,9.3-3,14,1.6
		c3.6,3.5,6.9,7.3,9.9,10.5c10.1-10.1,19.7-19.7,29.8-29.6c-3.3-3.2-7-6.6-10.5-10.2c-4.4-4.5-5-8.4-1.7-13.6
		c8.3-13.3,14.2-27.6,17.9-42.9c1.6-6.6,4.7-8.8,11.4-8.9c5,0,9.9,0,14.8,0c0-14.1,0-27.5,0-41.2c-5,0-9.7,0-14.4,0
		c-7-0.1-10.2-2.4-11.8-9.1c-3.6-15.1-9.4-29.3-17.7-42.4c-3.4-5.5-3-9.4,1.6-14c3.5-3.6,7.3-6.9,10.4-9.7
		c-10.1-10.3-19.6-19.9-29.6-30.1c-3.2,3.4-6.4,7.1-9.9,10.5c-4.7,4.6-8.7,5.1-14.4,1.5c-13.2-8.2-27.4-14-42.5-17.6
		c-6.1-1.5-8.6-4.7-8.7-11.1c-0.1-5,0-10,0-15c-14,0-27.4,0-41.1,0c0,5,0,9.7,0,14.3c-0.1,7.2-2.4,10.3-9.5,12
		c-14.9,3.6-28.9,9.4-42,17.5c-5.4,3.4-9.6,2.9-14-1.6c-3.5-3.5-6.8-7.4-9.7-10.6c-10.3,10.4-19.8,20.1-29.8,30.1
		c1.4,1.2,3.2,2.8,5,4.5c1.8,1.7,3.5,3.4,5.2,5.2c4.5,4.7,5.1,8.6,1.7,14c-8.3,13.2-14.1,27.3-17.7,42.4c-1.6,6.7-4.8,9.2-11.7,9.2
		c-4.8,0.1-9.6,0-14.7,0C98.4,249.3,98.4,262.5,98.4,276.6z"/>
	<path d="M74.6,397c24.3-8.8,44-3.1,55.1,15.7c10,17,6.5,38.7-8.5,51.8c-14.8,12.9-36.9,13.4-52.4,1c-14.3-11.3-21.5-33.2-9.1-54.2
		c-6.9-10.7-14.2-21-20.4-31.9C14.8,336.7,4,290.5,6.8,241.6c6.1-106.3,79-197,181.3-225.9c37.6-10.6,75.8-12,114.2-5.1
		c1.4,0.3,2.9,0.5,4.3,1c4.9,1.6,7.9,6.5,6.8,11.5c-1.1,5.2-6.1,8.4-11.9,7.6c-6.3-0.9-12.5-2.1-18.7-2.9
		c-35.1-4.4-69.5-1-102.5,11.3C101.9,68.4,51.4,123.7,32.2,205.2c-16.1,68.2-1.4,131.2,39.5,188.1C72.6,394.6,73.6,395.9,74.6,397z
		 M94.3,412c-11.6,0-21.4,9.8-21.4,21.4c0,11.6,9.9,21.5,21.4,21.5c11.6,0,21.4-9.8,21.4-21.4C115.7,421.8,105.9,412,94.3,412z"/>
	<path d="M345.9,23.9c5.6,0,9.7,4.2,9.6,9.9c-0.1,5.3-4.2,9.5-9.5,9.6c-5.3,0.1-9.9-4.4-9.9-9.8C336,28.1,340.3,23.9,345.9,23.9z"/>
	<path d="M166.7,488.4c-5.4,0-9.9-4.6-9.8-9.9c0.1-5.2,5-9.9,10.1-9.7c5.2,0.2,9.4,4.6,9.5,9.8C176.5,484.1,172.2,488.4,166.7,488.4
		z"/>
	<path d="M336.8,256c0,44.2-36.4,80.7-80.6,80.8c-44.4,0.1-81-36.6-80.9-81c0.1-44.2,36.6-80.6,80.8-80.5
		C300.4,175.4,336.8,211.8,336.8,256z M316.9,255.9c-0.1-33.8-27.4-60.9-61.1-60.7c-33.8,0.2-60.9,27.6-60.6,61.2
		c0.3,33.6,27.3,60.5,60.9,60.5C289.8,316.9,317.1,289.6,316.9,255.9z"/>
</g>
<g>
</g>
<g>
</g>
<g>
</g>
<g>
</g>
<g>
</g>
<g>
</g>
</svg>
