<?xml version="1.0" encoding="utf-8"?>
<!-- Generator: Adobe Illustrator 24.0.1, SVG Export Plug-In . SVG Version: 6.00 Build 0)  -->
<svg version="1.1" id="Layer_1" xmlns="http://www.w3.org/2000/svg" xmlns:xlink="http://www.w3.org/1999/xlink" x="0px" y="0px"
	 viewBox="0 0 410.4 410.4" style="enable-background:new 0 0 410.4 410.4;" xml:space="preserve">
<g>
	<path d="M403.2,266.4c0-69.9,0-139.9,0-209.8c0-24-14.8-42.9-37.7-48.3c-4-0.9-8.2-1.2-12.2-1.2C254.5,7,155.9,7,57.2,7
		C31.5,7,12.7,22.7,7.8,48.1c-0.1,0.5-0.4,0.9-0.6,1.4c0,103.6,0,207.2,0,310.8c2.1,6,3.4,12.4,6.4,17.9
		c7.4,13.4,19.1,21.4,34.4,23.9c0.6,0.1,1.2,0.4,1.8,0.7c52.8,0,157.4,0,212.7,0c1.3,0,2.7,0,4,0c31.4,0,62.8,0,94.3,0
		c6-2.1,12.5-3.3,18-6.5c16.2-9.2,24.4-23.7,24.5-42.3C403.3,324.9,403.2,295.6,403.2,266.4z M379.9,352.2
		c0,16.9-10.4,27.3-27.2,27.3l-294.4,0c-17.4,0-27.6-10.3-27.6-27.6c0-98.1,0-196.1,0-294.2c0-13.5,6.6-23.1,18.3-26.3
		c2.8-0.8,5.8-1.1,8.8-1.1c98.3-0.1,196.7-0.1,295,0c16.8,0,27.2,10.4,27.2,27.3C379.9,155.8,379.9,254,379.9,352.2z"/>
	<path d="M308.2,310.5c-27.3-39.7-54.5-79.4-81.8-119.1c-0.4-0.6-0.8-1.1-1.2-1.8c25.8-30,51.5-59.9,77.6-90.2
		c-5.5,0-10.6,0.1-15.6,0c-2-0.1-3.3,0.5-4.6,2c-18.3,21.4-36.8,42.8-55.2,64.2c-3.4,4-6.8,7.9-10.4,12.1c-0.6-0.8-1-1.4-1.4-2
		c-17.1-24.9-34.2-49.8-51.3-74.7c-0.7-1.1-1.4-1.6-2.8-1.6c-19.5,0.1-39,0-58.5,0c-0.5,0-1,0.1-1.8,0.1
		c27.2,39.6,54.2,78.9,81.3,118.3c-0.5,0.6-0.9,1.2-1.4,1.7c-21.7,25.2-43.3,50.3-65,75.5c-5,5.8-9.9,11.6-14.8,17.4
		c6.1,0,12.2,0,18.3,0c8.3-9.7,16.6-19.4,24.9-29c14.8-17.2,29.6-34.4,44.3-51.5c0.5-0.6,1.1-1.2,1.7-2c0.4,0.5,0.8,0.9,1.1,1.3
		c18.3,26.7,36.6,53.3,55,80c0.3,0.4,0.5,0.8,0.7,1.2c20.7,0,41.3,0,62,0C308.9,311.8,308.6,311.1,308.2,310.5z"/>
</g>
</svg>
